# xmcd
#
# Track frame offsets: 
#        150
#        14289
#        28861
#        43370
#        58454
#        69654
#        82010
#        95179
#        106297
#        120603
#        135414
#        149630
#        164692
#        179401
#        193905
#        208248
#        221131
#        235443
#        249143
#        261999
#        273536
#        287718
#        302657
#
# Disc length: 4225 seconds
#
# Revision: 0
# Processed by: cddbd v1.5.2PL0 Copyright (c) Steve Scherf et al.
# Submitted via: ExactAudioCopyFreeDBPlugin 1.0
#
DISCID=7d107f17
DTITLE=Various Artist - Sonny Boy Williams: Complete Recorded Works - Remainin
DTITLE=g Titles of Yack Taylor and Nora Lee King
DYEAR=1997
DGENRE=Blues
TTITLE0=Sonny Boy Williams - One Little Date with You (It's a Doggone 
TTITLE0=Shame)
TTITLE1=Sonny Boy Williams - Poppin'
TTITLE2=Sonny Boy Williams - I Want a Little Girl
TTITLE3=Sonny Boy Williams - You're the One for Me
TTITLE4=Sonny Boy Williams - Shake It but Don't Break It (from Pine To
TTITLE4=p's Boogie Woogie)
TTITLE5=Sonny Boy Williams - I'll Bring Home the Bacon for You, Baby
TTITLE6=Sonny Boy Williams - Worried Life Blues
TTITLE7=Sonny Boy Williams - Wee Wee Hours
TTITLE8=Sonny Boy Williams - Savoy Is Jumpin'
TTITLE9=Sonny Boy Williams - Reverse the Charges [71222]
TTITLE10=Sonny Boy Williams - Rubber Bounce
TTITLE11=Sonny Boy Williams - Honey It Must Be Love
TTITLE12=Sonny Boy Williams - Jump It but Don't Bump It
TTITLE13=Sonny Boy Williams - You'll Never Cry Again
TTITLE14=Sonny Boy Williams - The Boogie Man
TTITLE15=Sonny Boy Williams - Reverse the Charges [MF-116-02]
TTITLE16=Yack Taylor - Chicago Bound Blues
TTITLE17=Yack Taylor - Whip It to Jelly
TTITLE18=Nora Lee Young - Boy! It's Solid Groovy
TTITLE19=Nora Lee Young - I Ain't Got Nobody to Love
TTITLE20=Nora Lee Young - Sporty Joe
TTITLE21=Nora Lee Young - Big Chump Blues
TTITLE22=Nora Lee Young - Because I Love My Daddy So
EXTD=
EXTT0=
EXTT1=
EXTT2=
EXTT3=
EXTT4=
EXTT5=
EXTT6=
EXTT7=
EXTT8=
EXTT9=
EXTT10=
EXTT11=
EXTT12=
EXTT13=
EXTT14=
EXTT15=
EXTT16=
EXTT17=
EXTT18=
EXTT19=
EXTT20=
EXTT21=
EXTT22=
PLAYORDER=
